<svg width="72" height="55" viewBox="0 0 72 55" fill="none" xmlns="http://www.w3.org/2000/svg">
<path d="M35.5804 0.0871289C34.6798 0.114647 33.7955 0.310313 32.9604 0.661072L2.146 13.8053C1.10263 14.2588 0.435269 15.3633 0.47241 16.5788C0.509551 17.7943 1.2431 18.8561 2.31222 19.245L8.82659 21.5636C7.09806 24.7243 6.17621 28.4265 6.29425 32.2897L6.39759 35.6715C6.50202 39.0894 5.40899 42.6523 4.21533 45.4714C3.54044 47.058 2.76475 48.6236 1.85197 50.0729C1.51199 50.6013 1.43252 51.2783 1.65141 51.8859C1.87029 52.4936 2.35123 52.9366 2.93417 53.0754L10.1087 54.7836C10.5798 54.9017 11.0771 54.7901 11.4801 54.5008C11.883 54.2114 12.1581 53.7452 12.2312 53.225C13.03 48.0449 12.4107 43.4381 11.598 40.1503C11.19 38.4522 10.6586 36.7218 9.94258 35.1415L9.85212 32.181C9.74106 28.5465 10.7703 25.0819 12.6544 22.2778C14.0317 20.3686 15.8425 18.8075 17.9934 17.8142L35.2223 9.85538C36.1222 9.4424 37.1709 9.8922 37.5569 10.8682C37.9428 11.8442 37.5323 12.977 36.6323 13.39L19.4034 21.3488C18.0428 21.9807 16.8585 22.9203 15.9028 24.0577L33.8594 30.4476C34.7144 30.7467 35.609 30.888 36.5096 30.8605C37.4102 30.833 38.2945 30.6373 39.1295 30.2866L69.9562 17.1781C70.9999 16.7367 71.6669 15.6201 71.6298 14.4046C71.5926 13.189 70.8591 12.1273 69.79 11.7384L38.2305 0.50004C37.3756 0.20092 36.481 0.0596108 35.5804 0.0871289ZM15.6159 45.9903C15.7457 50.2386 25.4424 54.3632 37.2278 54.0031C49.0133 53.643 58.4401 48.9341 58.3103 44.6858L56.0745 27.2391L40.4532 33.9081C39.2338 34.4272 37.9403 34.7077 36.6395 34.7474C35.3386 34.7872 34.0193 34.5865 32.7816 34.1425L16.7823 28.4397L15.6159 45.9903Z" fill="white"/>
</svg>
