<svg width="79" height="70" viewBox="0 0 79 70" fill="none" xmlns="http://www.w3.org/2000/svg">
<path d="M26.3305 4.37467C26.3305 1.95493 28.2922 0 30.7203 0H48.2797C50.7078 0 52.6695 1.95493 52.6695 4.37467V8.74935H59.2542C62.8896 8.74935 65.839 11.6886 65.839 15.3114V32.81L71.9299 34.8333C75.0988 35.886 75.9768 39.9599 73.5075 42.2019L59.6521 54.8611C57.4297 56.1462 54.8918 56.9254 52.6695 56.9254C49.9807 56.9254 47.0725 55.8728 44.5483 54.1502C41.5166 52.0313 37.4697 52.0313 34.438 54.1502C32.0922 55.7634 29.2251 56.9254 26.3168 56.9254C24.0944 56.9254 21.5566 56.1462 19.3342 54.8611L5.47882 42.2019C3.00954 39.9462 3.8875 35.886 7.05641 34.8333L13.161 32.81V15.3114C13.161 11.6886 16.1104 8.74935 19.7458 8.74935H26.3305V4.37467ZM21.9407 29.8982L36.7289 24.9903C38.526 24.3888 40.474 24.3888 42.2848 24.9903L57.0593 29.8982V17.4987H21.9407V29.8982ZM42.0379 57.6773C45.1245 59.7963 48.897 61.2454 52.6695 61.2454C56.3597 61.2454 60.2694 59.769 63.2874 57.6773C64.9199 56.5153 67.1422 56.611 68.6649 57.9097C70.6404 59.5366 73.1234 60.7806 75.6064 61.3548C77.9659 61.9016 79.4337 64.253 78.885 66.6044C78.3363 68.9558 75.9768 70.4186 73.6172 69.8717C70.2563 69.0925 67.4577 67.616 65.6332 66.454C61.6549 68.5867 57.1965 69.9948 52.6695 69.9948C48.2934 69.9948 44.3563 68.6413 41.64 67.411C40.8444 67.0419 40.1173 66.6864 39.5 66.3583C38.8827 66.6864 38.1693 67.0555 37.36 67.411C34.6438 68.6413 30.7066 69.9948 26.3305 69.9948C21.8035 69.9948 17.3451 68.5867 13.3668 66.4677C11.5286 67.616 8.74375 69.1062 5.38279 69.8854C3.02326 70.4322 0.663722 68.9695 0.114993 66.6181C-0.433736 64.2667 1.03411 61.9153 3.39365 61.3685C5.87665 60.7943 8.35964 59.5502 10.3351 57.9234C11.8578 56.6383 14.0801 56.5426 15.7126 57.691C18.7443 59.769 22.6403 61.2454 26.3305 61.2454C30.103 61.2454 33.8755 59.7963 36.9621 57.6773C38.4849 56.5973 40.5152 56.5973 42.0379 57.6773Z" fill="white"/>
</svg>
