<svg width="79" height="70" viewBox="0 0 79 70" fill="none" xmlns="http://www.w3.org/2000/svg">
<path d="M63.3882 31.6208L65.134 30.0743L59.8966 25.4349L50.3024 16.9361L45.065 12.2966L43.3192 13.8431L39.8276 16.9361L9.05208 44.198C7.44533 45.6213 6.27116 47.3867 5.62228 49.3164L0.153132 65.794C-0.233107 66.9436 0.122233 68.189 1.09556 69.0375C2.06888 69.886 3.45934 70.2008 4.7571 69.8723L23.3429 65.0276C25.5213 64.4528 27.5143 63.4127 29.1211 61.9894L59.8966 34.7275L63.3882 31.6208ZM24.7179 54.6675L23.312 57.7742C22.694 58.1984 21.9988 58.5132 21.2572 58.7185L9.17568 61.8662L12.7291 51.1777C12.9454 50.5071 13.3162 49.8912 13.7951 49.3575L17.3022 48.1121V52.4915C17.3022 53.6958 18.4145 54.6812 19.7741 54.6812H24.7179V54.6675ZM56.0342 2.56607L53.8095 4.55049L50.3179 7.64346L48.5566 9.18995L53.794 13.8294L63.3882 22.3282L68.6256 26.9677L70.3714 25.4212L73.863 22.3282L76.1032 20.3438C79.9656 16.9224 79.9656 11.3797 76.1032 7.95823L70.0315 2.56607C66.1691 -0.855356 59.9121 -0.855356 56.0497 2.56607H56.0342ZM48.7111 25.558L26.4637 45.2654C25.5059 46.114 23.93 46.114 22.9721 45.2654C22.0143 44.4169 22.0143 43.021 22.9721 42.1725L45.2195 22.4651C46.1774 21.6166 47.7532 21.6166 48.7111 22.4651C49.669 23.3136 49.669 24.7095 48.7111 25.558Z" fill="white"/>
</svg>
