<svg width="79" height="70" viewBox="0 0 79 70" fill="none" xmlns="http://www.w3.org/2000/svg">
<path d="M9.875 5C9.875 2.23438 7.66855 0 4.9375 0C2.20645 0 0 2.23438 0 5V57.5C0 64.4062 5.52383 70 12.3438 70H74.0625C76.7936 70 79 67.7656 79 65C79 62.2344 76.7936 60 74.0625 60H12.3438C10.9859 60 9.875 58.875 9.875 57.5V5ZM72.6121 18.5312C74.5408 16.5781 74.5408 13.4062 72.6121 11.4531C70.6834 9.5 67.5512 9.5 65.6225 11.4531L49.375 27.9219L40.5184 18.9531C38.5896 17 35.4574 17 33.5287 18.9531L16.2475 36.4531C14.3188 38.4062 14.3188 41.5781 16.2475 43.5312C18.1762 45.4844 21.3084 45.4844 23.2371 43.5312L37.0312 29.5781L45.8879 38.5469C47.8166 40.5 50.9488 40.5 52.8775 38.5469L72.6275 18.5469L72.6121 18.5312Z" fill="white"/>
</svg>
